<svg xmlns="http://www.w3.org/2000/svg" xmlns:svg="http://www.w3.org/2000/svg" id="svg5" width="791.92" height="678.188" version="1.1" viewBox="0 0 209.529 179.437"><defs id="defs2"><marker style="overflow:visible" id="Arrow1Lend" orient="auto" refX="0" refY="0"><path transform="matrix(-0.8,0,0,-0.8,-10,0)" style="fill:context-stroke;fill-rule:evenodd;stroke:context-stroke;stroke-width:1pt" id="path87132" d="M 0,0 5,-5 -12.5,0 5,5 Z"/></marker><clipPath id="clipPath3404" clipPathUnits="userSpaceOnUse"><rect style="display:none;fill:#000;fill-opacity:.00177217;stroke:#000;stroke-width:.288626;stroke-opacity:0;-inkscape-stroke:none;paint-order:markers fill stroke;stop-color:#000" id="rect3406" width="22.49" height="12.965" x="72.559" y="177.203" ry="1.576" transform="scale(-1,1)"/><path style="fill:#000;fill-opacity:.00177217;stroke:#000;stroke-width:.288626;stroke-opacity:0;-inkscape-stroke:none;paint-order:markers fill stroke;stop-color:#000" id="lpe_path-effect3408" d="m -100.36366,181.96871 h 32.986818 v 17.33617 h -32.986818 z m 174.498712,-4.76545 c -0.872948,0 -1.575718,0.70277 -1.575718,1.57572 v 9.81315 c 0,0.87294 0.70277,1.57571 1.575718,1.57571 h 19.338146 c 0.872948,0 1.575718,-0.70277 1.575718,-1.57571 v -9.81315 c 0,-0.87295 -0.70277,-1.57572 -1.575718,-1.57572 z" class="powerclip"/></clipPath><clipPath id="clipPath3520" clipPathUnits="userSpaceOnUse"><rect style="fill:#000;fill-opacity:.00177217;stroke:#000;stroke-width:.264949;stroke-opacity:0;-inkscape-stroke:none;paint-order:markers fill stroke;stop-color:#000" id="rect3522" width="26.797" height="7.144" x="70.954" y="190.457" ry="1.608" transform="scale(-1,1)"/></clipPath><marker style="overflow:visible" id="Arrow1Lend-0" orient="auto" refX="0" refY="0"><path transform="matrix(-0.8,0,0,-0.8,-10,0)" style="fill:context-stroke;fill-rule:evenodd;stroke:context-stroke;stroke-width:1pt" id="path87132-6" d="M 0,0 5,-5 -12.5,0 5,5 Z"/></marker><marker style="overflow:visible" id="Arrow1Lend-0-9" orient="auto" refX="0" refY="0"><path transform="matrix(-0.8,0,0,-0.8,-10,0)" style="fill:context-stroke;fill-rule:evenodd;stroke:context-stroke;stroke-width:1pt" id="path87132-6-9" d="M 0,0 5,-5 -12.5,0 5,5 Z"/></marker><marker style="overflow:visible" id="Arrow1Lend-1" orient="auto" refX="0" refY="0"><path transform="matrix(-0.8,0,0,-0.8,-10,0)" style="fill:context-stroke;fill-rule:evenodd;stroke:context-stroke;stroke-width:1pt" id="path87132-9" d="M 0,0 5,-5 -12.5,0 5,5 Z"/></marker><marker style="overflow:visible" id="Arrow1Lend-1-9" orient="auto" refX="0" refY="0"><path transform="matrix(-0.8,0,0,-0.8,-10,0)" style="fill:context-stroke;fill-rule:evenodd;stroke:context-stroke;stroke-width:1pt" id="path87132-9-3" d="M 0,0 5,-5 -12.5,0 5,5 Z"/></marker><marker style="overflow:visible" id="Arrow1Lend-1-9-8" orient="auto" refX="0" refY="0"><path transform="matrix(-0.8,0,0,-0.8,-10,0)" style="fill:context-stroke;fill-rule:evenodd;stroke:context-stroke;stroke-width:1pt" id="path87132-9-3-0" d="M 0,0 5,-5 -12.5,0 5,5 Z"/></marker></defs><g id="layer1" transform="translate(-3.6186904,-55.154259)"><g id="g8640" transform="matrix(0.57830626,0,0,0.72299422,34.85779,41.608682)"><g id="path982" clip-path="url(#clipPath3520)" transform="matrix(-1.00214,0,0,1,-0.16231941,-0.13881)"><path style="color:#000;fill:#000;fill-opacity:.00177217;stroke-width:.264583;-inkscape-stroke:none;paint-order:markers fill stroke" id="path3252" d="m -72.502996,190.63881 c -0.624653,2.23452 -3.585351,2.50002 -5.485888,3.02768 -5.492265,0.80062 -11.635739,1.06478 -16.56045,-1.81764 -1.357819,-0.86515 -0.375213,-2.60283 0.837294,-2.979 5.600687,-2.30862 12.063282,-2.24237 17.880052,-0.73272 1.212976,0.46034 3.126098,0.97659 3.328992,2.50168 z"/><path style="color:#000;fill:#000;-inkscape-stroke:none;paint-order:markers fill stroke" id="path3254" d="m -83.869141,186.96875 c -3.092084,0.0317 -6.254318,0.29764 -9.158562,1.43121 -0.948874,0.42465 -2.160776,0.98716 -2.335368,2.13688 -0.03048,1.13041 1.128737,1.77578 2.01401,2.2012 2.79464,1.19885 5.883023,1.48308 8.892959,1.56596 3.227108,0.0176 6.529061,-0.22207 9.577246,-1.35698 0.983872,-0.42492 2.216929,-0.95545 2.491409,-2.10575 0.131657,-1.10886 -0.989868,-1.80583 -1.848855,-2.22883 -2.693281,-1.2102 -5.690927,-1.51327 -8.610666,-1.62963 -0.340638,-0.009 -0.681406,-0.0141 -1.022173,-0.0141 z m 0,0.26367 c 3.057519,0.0329 6.185457,0.29127 9.057478,1.41245 0.848299,0.38927 1.902189,0.84323 2.16364,1.83229 0.0792,0.99525 -0.943861,1.55946 -1.703251,1.94947 -2.660204,1.19313 -5.620149,1.48802 -8.50292,1.60426 -3.276696,0.0574 -6.627855,-0.16312 -9.739185,-1.26589 -0.926253,-0.38664 -2.034121,-0.81205 -2.455537,-1.80341 -0.260989,-0.93069 0.678473,-1.58381 1.382411,-1.96645 2.409591,-1.19908 5.139719,-1.5232 7.79259,-1.70744 0.667564,-0.0372 1.33618,-0.0553 2.004774,-0.0553 z"/></g><ellipse style="fill:#000;fill-opacity:.279891;stroke:#000;stroke-width:.264583;-inkscape-stroke:none;paint-order:markers fill stroke;stop-color:#000" id="path982-7" cx="83.899" cy="111.165" rx="11.366" ry="3.538"/><path style="fill:#000;fill-opacity:.279891;stroke:#000;stroke-width:.264583px;stroke-linecap:butt;stroke-linejoin:miter;stroke-opacity:1" id="path1145" d="M 95.249999,190.5 V 111.125"/><path style="fill:#000;fill-opacity:.279891;stroke:#000;stroke-width:.264583px;stroke-linecap:butt;stroke-linejoin:miter;stroke-opacity:1" id="path1145-8" d="M 72.495833,190.5 V 111.125"/></g><text xml:space="preserve" style="font-size:3.52777px;line-height:1.25;font-family:sans-serif;stroke-width:.264583" id="text6980" x="-175.542" y="84.652" transform="rotate(-90)"><tspan id="tspan6978" style="stroke-width:.264583" x="-175.542" y="84.652">@Channel(&quot;my-channel&quot;)</tspan></text><text xml:space="preserve" style="font-size:3.52777px;line-height:1.25;font-family:sans-serif;stroke-width:.264583" id="text11570" x="13.981" y="95.263"><tspan id="tspan11568" style="stroke-width:.264583" x="13.981" y="95.263">@Inject</tspan><tspan style="stroke-width:.264583" id="tspan11572" x="13.981" y="99.673">@Channel(&quot;my-channel&quot;)</tspan><tspan style="stroke-width:.264583" id="tspan11574" x="13.981" y="104.083">Emitter&lt;String&gt; emitter;</tspan></text><text xml:space="preserve" style="font-size:3.52777px;line-height:1.25;font-family:sans-serif;stroke-width:.264583" id="text21040" x="49.469" y="58.835"><tspan style="stroke-width:.264583" id="tspan21046" x="49.469" y="58.835">@Outgoing(&quot;my-channel&quot;)</tspan><tspan style="stroke-width:.264583" id="tspan26859" x="49.469" y="63.244">public PublisherBuilder&lt;String&gt; produceMessages() {</tspan><tspan style="stroke-width:.264583" id="tspan26861" x="49.469" y="67.654"> return ReactiveStreams.of(&quot;foo&quot;, &quot;bar&quot;, &quot;baz&quot;);</tspan><tspan style="stroke-width:.264583" id="tspan26863" x="49.469" y="72.064">}</tspan></text><text xml:space="preserve" style="font-size:2.11667px;line-height:1.25;font-family:sans-serif;stroke-width:.264583" id="text41069" x="103.891" y="85.491"><tspan id="tspan41067" style="font-size:2.11667px;stroke-width:.264583" x="103.891" y="85.491">@ApplicationScoped</tspan><tspan style="font-size:2.11667px;stroke-width:.264583" id="tspan41071" x="103.891" y="88.137">@Connector(&quot;example-connector&quot;)</tspan><tspan style="font-size:2.11667px;stroke-width:.264583" id="tspan41073" x="103.891" y="90.783">class ExampleConnector implements IncomingConnectorFactory {</tspan><tspan style="font-size:2.11667px;stroke-width:.264583" id="tspan41077" x="103.891" y="96.075"> @Override</tspan><tspan style="font-size:2.11667px;stroke-width:.264583" id="tspan41079" x="103.891" y="98.72"> public PublisherBuilder&lt;? extends Message&lt;?&gt;&gt; getPublisherBuilder(Config c) {</tspan><tspan style="font-size:2.11667px;stroke-width:.264583" id="tspan41081" x="103.891" y="101.366"> return ReactiveStreams.of(&quot;foo&quot;, &quot;bar&quot;)</tspan><tspan style="font-size:2.11667px;stroke-width:.264583" id="tspan41083" x="103.891" y="104.012"> .map(Message::of);</tspan><tspan style="font-size:2.11667px;stroke-width:.264583" id="tspan41085" x="103.891" y="106.658"> }</tspan></text><text xml:space="preserve" style="font-size:5.64444px;line-height:1.25;font-family:sans-serif;stroke-width:.264583" id="text81913" x="-28.807" y="89.211" transform="rotate(-40.796761)"><tspan id="tspan81911" style="font-size:5.64444px;stroke-width:.264583" x="-28.807" y="89.211">OR</tspan></text><text xml:space="preserve" style="font-size:5.64444px;line-height:1.25;font-family:sans-serif;stroke-width:.264583" id="text81913-2" x="120.415" y="-55.194" transform="rotate(58.292105)"><tspan id="tspan81911-8" style="font-size:5.64444px;stroke-width:.264583" x="120.415" y="-55.194">OR</tspan></text><path style="fill:none;stroke:#000;stroke-width:.264583px;stroke-linecap:butt;stroke-linejoin:miter;stroke-opacity:1;marker-end:url(#Arrow1Lend)" id="path87127" d="m 59.529072,102.2583 c 0,0 9.349901,2.06839 12.859193,4.57749 3.150857,2.25283 8.299875,11.30463 8.299875,11.30463"/><path style="fill:none;stroke:#000;stroke-width:.264583px;stroke-linecap:butt;stroke-linejoin:miter;stroke-opacity:1;marker-end:url(#Arrow1Lend-0)" id="path87127-2" d="m 78.000445,72.18699 c 0,0 4.315923,22.062854 4.888035,27.719205 1.296814,12.821315 1.168214,17.843295 1.168214,17.843295"/><path style="fill:none;stroke:#000;stroke-width:.264583px;stroke-linecap:butt;stroke-linejoin:miter;stroke-opacity:1;marker-end:url(#Arrow1Lend-0-9)" id="path87127-2-0" d="m 101.81032,94.663869 c 0,0 -5.997069,2.013361 -8.744737,6.990501 -3.770635,6.83014 -5.554907,16.34747 -5.554907,16.34747"/><text xml:space="preserve" style="font-size:3.52777px;line-height:1.25;font-family:sans-serif;stroke-width:.264583" id="text104038" x="37.438" y="219.787"><tspan id="tspan104036" style="stroke-width:.264583" x="37.438" y="219.787">@Incoming(&quot;my-channel&quot;)</tspan><tspan style="stroke-width:.264583" id="tspan104040" x="37.438" y="224.197">public void printMessage(String msg) {</tspan><tspan style="stroke-width:.264583" id="tspan104042" x="37.438" y="228.606"> System.out.println(&quot;Just received message: &quot; + msg);</tspan><tspan style="stroke-width:.264583" id="tspan104044" x="37.438" y="233.016">}</tspan></text><text xml:space="preserve" style="font-size:3.52777px;line-height:1.25;font-family:sans-serif;stroke-width:.264583" id="text119108" x="12.954" y="190.921"><tspan id="tspan119106" style="stroke-width:.264583" x="12.954" y="190.921">@Inject</tspan><tspan style="stroke-width:.264583" id="tspan119110" x="12.954" y="195.33">@Channel(&quot;my-channel&quot;)</tspan><tspan style="stroke-width:.264583" id="tspan119112" x="12.954" y="199.74">Publisher&lt;String&gt; field;</tspan></text><text xml:space="preserve" style="font-size:2.11667px;line-height:1.25;font-family:sans-serif;stroke-width:.264583" id="text41069-1" x="115.136" y="188.878"><tspan style="font-size:2.11667px;stroke-width:.264583" id="tspan41085-9" x="115.136" y="188.878">@ApplicationScoped</tspan><tspan style="font-size:2.11667px;stroke-width:.264583" id="tspan139680" x="115.136" y="191.524">@Connector(&quot;example-connector&quot;)</tspan><tspan style="font-size:2.11667px;stroke-width:.264583" id="tspan139682" x="115.136" y="194.17">public class ExampleConnector implements OutgoingConnectorFactory {</tspan><tspan style="font-size:2.11667px;stroke-width:.264583" id="tspan139698" x="115.136" y="199.461"> @Override</tspan><tspan style="font-size:2.11667px;stroke-width:.264583" id="tspan139700" x="115.136" y="202.107"> public SubscriberBuilder&lt;? extends Message&lt;?&gt;, Void&gt; getSubscriberBuilder(Config c) {</tspan><tspan style="font-size:2.11667px;stroke-width:.264583" id="tspan139702" x="115.136" y="204.753"> return ReactiveStreams.&lt;Message&lt;?&gt;&gt;builder()</tspan><tspan style="font-size:2.11667px;stroke-width:.264583" id="tspan139704" x="115.136" y="207.399"> .map(Message::getPayload)</tspan><tspan style="font-size:2.11667px;stroke-width:.264583" id="tspan139706" x="115.136" y="210.045"> .forEach(o -&gt; System.out.println(&quot;Connector says: &quot; + o));</tspan><tspan style="font-size:2.11667px;stroke-width:.264583" id="tspan139708" x="115.136" y="212.69"> }</tspan></text><path style="fill:none;stroke:#000;stroke-width:.264583px;stroke-linecap:butt;stroke-linejoin:miter;stroke-opacity:1;marker-end:url(#Arrow1Lend-1)" id="path87127-6" d="m 80.020147,183.21289 c 0,0 -1.969313,3.98611 -4.969422,7.08612 -3.666017,3.78809 -16.133843,6.416 -16.133843,6.416"/><path style="fill:none;stroke:#000;stroke-width:.264583px;stroke-linecap:butt;stroke-linejoin:miter;stroke-opacity:1;marker-end:url(#Arrow1Lend-1-9)" id="path87127-6-3" d="m 83.662826,183.76158 c 0,0 0.252904,13.37407 -2.059966,17.01569 -5.805692,9.14106 -10.473425,15.53665 -10.473425,15.53665"/><path style="fill:none;stroke:#000;stroke-width:.264583px;stroke-linecap:butt;stroke-linejoin:miter;stroke-opacity:1;marker-end:url(#Arrow1Lend-1-9-8)" id="path87127-6-3-5" d="m 87.140314,183.63248 c 0,0 2.607403,12.39831 7.378747,16.67971 3.588844,3.22032 19.190719,4.65346 19.190719,4.65346"/><text xml:space="preserve" style="font-size:5.64444px;line-height:1.25;font-family:sans-serif;stroke-width:.264583" id="text81913-6" x="-61.557" y="233.929" transform="rotate(-40.796761)"><tspan id="tspan81911-6" style="font-size:5.64444px;stroke-width:.264583" x="-61.557" y="233.929">OR</tspan></text><text xml:space="preserve" style="font-size:5.64444px;line-height:1.25;font-family:sans-serif;stroke-width:.264583" id="text81913-2-4" x="196.732" y="73.609" transform="rotate(58.292105)"><tspan id="tspan81911-8-0" style="font-size:5.64444px;stroke-width:.264583" x="196.732" y="73.609">OR</tspan></text><path style="fill:none;stroke:#000;stroke-width:.264583;stroke-linecap:butt;stroke-linejoin:miter;stroke-miterlimit:4;stroke-dasharray:1.05833,.264583;stroke-dashoffset:0;stroke-opacity:1" id="path159651" d="m 93.927083,148.16667 c 28.222487,0 56.444707,0 84.666657,0"/><path style="fill:none;stroke:#000;stroke-width:.23151;stroke-linecap:butt;stroke-linejoin:miter;stroke-miterlimit:4;stroke-dasharray:.926039,.23151;stroke-dashoffset:0;stroke-opacity:1" id="path159651-4" d="m 7.9375,148.16667 c 21.607846,0 43.215485,0 64.822917,0"/><text xml:space="preserve" style="font-size:3.52777px;line-height:1.25;font-family:sans-serif;stroke-width:.264583" id="text163607" x="116.055" y="143.8"><tspan id="tspan163605" style="stroke-width:.264583" x="116.055" y="143.8">UPSTREAM</tspan></text><text xml:space="preserve" style="font-size:3.52777px;line-height:1.25;font-family:sans-serif;stroke-width:.264583" id="text163607-6" x="112.689" y="154.991"><tspan id="tspan163605-2" style="stroke-width:.264583" x="112.689" y="154.991">DOWNSTREAM</tspan></text><ellipse style="fill:#000;fill-opacity:1;stroke:#000;stroke-width:.0604999;stroke-dasharray:.241999,.0604999;stroke-opacity:0;paint-order:markers fill stroke;stop-color:#000" id="path1598" cx="8.629" cy="97.922" rx="2.782" ry="2.796"/><text xml:space="preserve" style="font-size:3.52777px;line-height:1.25;font-family:sans-serif;fill:#fff;fill-opacity:1;stroke-width:.264583" id="text7050" x="7.437" y="99.137"><tspan id="tspan7048" style="fill:#fff;fill-opacity:1;stroke-width:.264583" x="7.437" y="99.137">1</tspan></text><ellipse style="fill:#000;fill-opacity:1;stroke:#000;stroke-width:.0604999;stroke-dasharray:.241999,.0604999;stroke-opacity:0;paint-order:markers fill stroke;stop-color:#000" id="path1598-6" cx="99.934" cy="87.901" rx="2.782" ry="2.796"/><text xml:space="preserve" style="font-size:3.52777px;line-height:1.25;font-family:sans-serif;fill:#fff;fill-opacity:1;stroke-width:.264583" id="text7050-2" x="98.9" y="89.174"><tspan id="tspan7048-5" style="fill:#fff;fill-opacity:1;stroke-width:.264583" x="98.9" y="89.174">3</tspan></text><ellipse style="fill:#000;fill-opacity:1;stroke:#000;stroke-width:.0604999;stroke-dasharray:.241999,.0604999;stroke-opacity:0;paint-order:markers fill stroke;stop-color:#000" id="path1598-6-8" cx="7.43" cy="193.409" rx="2.782" ry="2.796"/><text xml:space="preserve" style="font-size:3.52777px;line-height:1.25;font-family:sans-serif;fill:#fff;fill-opacity:1;stroke-width:.264583" id="text7050-2-6" x="6.234" y="194.683"><tspan id="tspan7048-5-2" style="fill:#fff;fill-opacity:1;stroke-width:.264583" x="6.234" y="194.683">4</tspan></text><ellipse style="fill:#000;fill-opacity:1;stroke:#000;stroke-width:.0604999;stroke-dasharray:.241999,.0604999;stroke-opacity:0;paint-order:markers fill stroke;stop-color:#000" id="path1598-6-84" cx="44.362" cy="63.248" rx="2.782" ry="2.796"/><text xml:space="preserve" style="font-size:3.52777px;line-height:1.25;font-family:sans-serif;fill:#fff;fill-opacity:1;stroke-width:.264583" id="text7050-2-7" x="43.297" y="64.481"><tspan id="tspan7048-5-24" style="fill:#fff;fill-opacity:1;stroke-width:.264583" x="43.297" y="64.481">2</tspan></text><ellipse style="fill:#000;fill-opacity:1;stroke:#000;stroke-width:.0604999;stroke-dasharray:.241999,.0604999;stroke-opacity:0;paint-order:markers fill stroke;stop-color:#000" id="path1598-6-0" cx="110.117" cy="191.947" rx="2.782" ry="2.796"/><text xml:space="preserve" style="font-size:3.52777px;line-height:1.25;font-family:sans-serif;fill:#fff;fill-opacity:1;stroke-width:.264583" id="text7050-2-62" x="108.969" y="193.198"><tspan id="tspan7048-5-9" style="fill:#fff;fill-opacity:1;stroke-width:.264583" x="108.969" y="193.198">6</tspan></text><ellipse style="fill:#000;fill-opacity:1;stroke:#000;stroke-width:.0604999;stroke-dasharray:.241999,.0604999;stroke-opacity:0;paint-order:markers fill stroke;stop-color:#000" id="path1598-6-9" cx="33.277" cy="221.046" rx="2.782" ry="2.796"/><text xml:space="preserve" style="font-size:3.52777px;line-height:1.25;font-family:sans-serif;fill:#fff;fill-opacity:1;stroke-width:.264583" id="text7050-2-0" x="32.243" y="222.387"><tspan id="tspan7048-5-8" style="fill:#fff;fill-opacity:1;stroke-width:.264583" x="32.243" y="222.387">5</tspan></text></g></svg>