<svg xmlns="http://www.w3.org/2000/svg" xmlns:osb="http://www.openswatchbook.org/uri/2009/osb" xmlns:svg="http://www.w3.org/2000/svg" id="svg8" width="681.018" height="154.207" version="1.1" viewBox="0 0 180.186 40.801"><defs id="defs2"><marker style="overflow:visible" id="marker2641" orient="auto" refX="0" refY="0"><path transform="matrix(-0.8,0,0,-0.8,-10,0)" style="fill:#000;fill-opacity:1;fill-rule:evenodd;stroke:#000;stroke-width:1pt;stroke-opacity:1" id="path2639" d="M 0,0 5,-5 -12.5,0 5,5 Z"/></marker><marker style="overflow:visible" id="marker2397" orient="auto" refX="0" refY="0"><path transform="matrix(-0.8,0,0,-0.8,-10,0)" style="fill:#000;fill-opacity:1;fill-rule:evenodd;stroke:#000;stroke-width:1pt;stroke-opacity:1" id="path2395" d="M 0,0 5,-5 -12.5,0 5,5 Z"/></marker><marker style="overflow:visible" id="marker1711" orient="auto" refX="0" refY="0"><path transform="matrix(0.8,0,0,0.8,10,0)" style="fill:#000;fill-opacity:1;fill-rule:evenodd;stroke:#000;stroke-width:1pt;stroke-opacity:1" id="path1709" d="M 0,0 5,-5 -12.5,0 5,5 Z"/></marker><marker style="overflow:visible" id="Arrow1Lstart" orient="auto" refX="0" refY="0"><path transform="matrix(0.8,0,0,0.8,10,0)" style="fill:#000;fill-opacity:1;fill-rule:evenodd;stroke:#000;stroke-width:1pt;stroke-opacity:1" id="path912" d="M 0,0 5,-5 -12.5,0 5,5 Z"/></marker><marker style="overflow:visible" id="marker1571" orient="auto" refX="0" refY="0"><path transform="matrix(-0.8,0,0,-0.8,-10,0)" style="fill:#000;fill-opacity:1;fill-rule:evenodd;stroke:#000;stroke-width:1pt;stroke-opacity:1" id="path1569" d="M 0,0 5,-5 -12.5,0 5,5 Z"/></marker><marker style="overflow:visible" id="marker1547" orient="auto" refX="0" refY="0"><path transform="matrix(-0.8,0,0,-0.8,-10,0)" style="fill:#000;fill-opacity:1;fill-rule:evenodd;stroke:#000;stroke-width:1pt;stroke-opacity:1" id="path1545" d="M 0,0 5,-5 -12.5,0 5,5 Z"/></marker><marker style="overflow:visible" id="marker1447" orient="auto" refX="0" refY="0"><path transform="matrix(-0.8,0,0,-0.8,-10,0)" style="fill:#000;fill-opacity:1;fill-rule:evenodd;stroke:#000;stroke-width:1pt;stroke-opacity:1" id="path1445" d="M 0,0 5,-5 -12.5,0 5,5 Z"/></marker><linearGradient id="linearGradient859" osb:paint="solid"><stop style="stop-color:#c5e0bf;stop-opacity:1" id="stop857" offset="0"/></linearGradient><marker style="overflow:visible" id="Arrow1Lend-1" orient="auto" refX="0" refY="0"><path transform="matrix(-0.8,0,0,-0.8,-10,0)" style="fill:#000;fill-opacity:1;fill-rule:evenodd;stroke:#000;stroke-width:1pt;stroke-opacity:1" id="path915-6" d="M 0,0 5,-5 -12.5,0 5,5 Z"/></marker><marker style="overflow:visible" id="Arrow1Lstart-2" orient="auto" refX="0" refY="0"><path transform="matrix(0.8,0,0,0.8,10,0)" style="fill:#000;fill-opacity:1;fill-rule:evenodd;stroke:#000;stroke-width:1pt;stroke-opacity:1" id="path912-2" d="M 0,0 5,-5 -12.5,0 5,5 Z"/></marker></defs><metadata id="metadata5"/><g id="layer1" transform="translate(24.873827,-44.644547)"><path style="mix-blend-mode:normal;fill:#c5e0bf;fill-opacity:1;stroke:#81a779;stroke-width:.0636601;stroke-linejoin:round;stroke-miterlimit:4;stroke-dasharray:none;stroke-opacity:1" id="rect32-3" width="33.16" height="11.014" x="118.12" y="68.815" d="m 119.70795,68.815094 29.985,0 a 1.5875,1.5875 45 0 1 1.5875,1.5875 v 7.838927 a 1.5875,1.5875 135 0 1 -1.5875,1.5875 h -29.985 a 1.5875,1.5875 45 0 1 -1.5875,-1.5875 v -7.838927 a 1.5875,1.5875 135 0 1 1.5875,-1.5875 z"/><text xml:space="preserve" style="font-style:normal;font-weight:400;font-size:4.5861px;line-height:1.25;font-family:sans-serif;fill:#000;fill-opacity:1;stroke:none;stroke-width:.264583" id="text867-4" x="121.328" y="75.894"><tspan id="tspan865-8" x="121.328" y="75.894" style="font-size:4.5861px;stroke-width:.264583">Coordinator</tspan></text><path style="display:inline;fill:none;fill-rule:evenodd;stroke:#000;stroke-width:.213446px;stroke-linecap:butt;stroke-linejoin:miter;stroke-opacity:1;marker-end:url(#Arrow1Lend-1)" id="path1228-5" d="M 19.834078,62.875925 C 145.43014,60.920783 137.83442,59.12657 137.47125,68.510697"/><path style="display:inline;fill:none;fill-rule:evenodd;stroke:#000;stroke-width:.21774px;stroke-linecap:butt;stroke-linejoin:round;stroke-opacity:1;marker-start:url(#Arrow1Lstart)" id="path1519" d="m 141.7006,68.657136 c 0.068,-16.085648 -4.81184,-12.740643 -122.122606,-7.841958"/><path style="display:inline;fill:none;fill-rule:evenodd;stroke:#000;stroke-width:.215741px;stroke-linecap:butt;stroke-linejoin:miter;stroke-opacity:1;marker-end:url(#marker1571)" id="path1707" d="M 118.01183,74.171151 C 92.592487,72.154466 99.817959,65.934027 19.796821,64.78633"/><text xml:space="preserve" style="font-style:normal;font-weight:400;font-size:2.82222px;line-height:1.25;font-family:sans-serif;fill:#000;fill-opacity:1;stroke:none;stroke-width:.264583" id="text1787" x="102.889" y="50.702"><tspan id="tspan1785" x="102.889" y="50.702" style="font-size:2.82222px;stroke-width:.264583">start LRA</tspan></text><text xml:space="preserve" style="font-style:normal;font-weight:400;font-size:2.82222px;line-height:1.25;font-family:sans-serif;fill:#000;fill-opacity:1;stroke:none;stroke-width:.264583" id="text1787-5" x="104.947" y="55.63"><tspan id="tspan1785-4" x="104.947" y="55.63" style="font-size:2.82222px;stroke-width:.264583">join A</tspan></text><text xml:space="preserve" style="font-style:normal;font-weight:400;font-size:2.82222px;line-height:1.25;font-family:sans-serif;fill:#000;fill-opacity:1;stroke:none;stroke-width:.264583" id="text1787-5-7" x="104.606" y="60.682"><tspan id="tspan1785-4-6" x="104.606" y="60.682" style="font-size:2.82222px;stroke-width:.264583">cancel</tspan></text><path style="mix-blend-mode:normal;fill:#c5e0bf;fill-opacity:1;stroke:#81a779;stroke-width:.0636601;stroke-linejoin:round;stroke-miterlimit:4;stroke-dasharray:none;stroke-opacity:1" id="rect32-37" width="33.16" height="11.014" x="-13.627" y="70.399" d="M -12.039512,70.399307 H 17.94548 a 1.5875,1.5875 45 0 1 1.5875,1.5875 v 7.838928 a 1.5875,1.5875 135 0 1 -1.5875,1.5875 h -29.984992 a 1.5875,1.5875 45 0 1 -1.5875,-1.5875 l 0,-7.838928 a 1.5875,1.5875 135 0 1 1.5875,-1.5875 z"/><path style="mix-blend-mode:normal;fill:#c5e0bf;fill-opacity:1;stroke:#81a779;stroke-width:.0704314;stroke-linejoin:round;stroke-miterlimit:4;stroke-dasharray:none;stroke-opacity:1" id="rect32-37-3" width="40.589" height="11.014" x="-20.839" y="55.296" d="m -19.251112,55.296429 h 37.414405 a 1.5875,1.5875 45 0 1 1.5875,1.5875 v 7.838927 a 1.5875,1.5875 135 0 1 -1.5875,1.5875 h -37.414405 a 1.5875,1.5875 45 0 1 -1.5875,-1.5875 l 0,-7.838927 a 1.5875,1.5875 135 0 1 1.5875,-1.5875 z"/><path style="display:inline;fill:none;fill-rule:evenodd;stroke:#000;stroke-width:.264583px;stroke-linecap:butt;stroke-linejoin:miter;stroke-opacity:1;marker-end:url(#marker2397)" id="path2299" d="M 19.698509,58.067028 C 121.28041,51.162018 145.81786,46.962753 145.75263,68.33991"/><path style="display:inline;fill:none;fill-rule:evenodd;stroke:#000;stroke-width:.264583px;stroke-linecap:butt;stroke-linejoin:miter;stroke-opacity:1;marker-end:url(#marker2641)" id="path2631" d="M 117.77531,76.892373 19.404556,76.365881"/><text xml:space="preserve" style="font-style:normal;font-weight:400;font-size:2.82222px;line-height:1.25;font-family:sans-serif;white-space:pre;inline-size:27.9612;fill:#000;fill-opacity:1;stroke:none;stroke-width:.264583" id="text1787-5-7-9-2" x="23.459" y="83.664" transform="translate(1.8744356,-4.0052239)"><tspan x="23.459" y="83.664"><tspan style="font-size:2.82222px;stroke-width:.264583">compensate B</tspan></tspan></text><text xml:space="preserve" style="font-style:normal;font-weight:400;font-size:2.82222px;line-height:1.25;font-family:sans-serif;white-space:pre;inline-size:28.8038;fill:#000;fill-opacity:1;stroke:none;stroke-width:.264583" id="text1787-5-7-9-2-2" x="23.459" y="83.664" transform="translate(1.729977,-15.114606)"><tspan x="23.459" y="83.664"><tspan style="font-size:2.82222px;stroke-width:.264583">compensate A</tspan></tspan></text><g id="g3124" transform="matrix(0.20554452,0,0,0.19529723,-19.227509,56.679935)"><circle id="circle3108" cx="19" cy="29.048" r="1.523"/><path id="path3110" d="m 18.975,25.257 v 0 A 0.969,0.969 0 0 1 18.006,24.328 L 17.661,17.121 A 1.34,1.34 0 0 1 19,15.725 v 0 a 1.341,1.341 0 0 1 1.339,1.4 l -0.4,7.2 a 0.969,0.969 0 0 1 -0.964,0.932 z"/><path id="path3112" d="m 20.044,5.883 v 0 M 19,7.691 26.251,20.25 33.5,32.809 H 4.5 L 11.749,20.25 19,7.691 m 0,-3.7 A 1.281,1.281 0 0 0 17.879,4.638 L 9.584,19 1.289,33.367 a 1.3,1.3 0 0 0 1.121,1.942 h 33.18 a 1.3,1.3 0 0 0 1.121,-1.942 L 28.416,19 20.116,4.633 A 1.281,1.281 0 0 0 19,3.986 Z"/></g><text xml:space="preserve" style="font-style:normal;font-weight:400;font-size:4.5861px;line-height:1.25;font-family:sans-serif;fill:#000;fill-opacity:1;stroke:none;stroke-width:.264583" id="text867-5-5-9" x="-11.584" y="77.788"><tspan id="tspan865-4-5-5" x="-11.584" y="77.788" style="font-size:4.5861px;stroke-width:.264583">Participant B</tspan></text><text xml:space="preserve" style="font-style:normal;font-weight:400;font-size:4.5861px;line-height:1.25;font-family:sans-serif;fill:#000;fill-opacity:1;stroke:none;stroke-width:.264583" id="text867-5-5-8" x="-10.451" y="62.326"><tspan id="tspan865-4-5-4" x="-10.451" y="62.326" style="font-size:4.5861px;stroke-width:.264583">Participant A</tspan></text><path style="display:inline;fill:none;fill-rule:evenodd;stroke:#000;stroke-width:.21774px;stroke-linecap:butt;stroke-linejoin:round;stroke-opacity:1;marker-start:url(#Arrow1Lstart-2)" id="path1519-8" d="m 130.195,68.68955 c -0.38163,-13.167834 3.50735,4.696745 -110.498576,4.515003"/><text xml:space="preserve" style="font-style:normal;font-weight:400;font-size:2.82223px;line-height:1.25;font-family:sans-serif;fill:#000;fill-opacity:1;stroke:none;stroke-width:.264583" id="text1787-5-9" x="102.569" y="66.706"><tspan id="tspan1785-4-7" x="102.569" y="66.706" style="font-size:2.82223px;stroke-width:.264583">join B</tspan></text></g></svg>