<svg xmlns="http://www.w3.org/2000/svg" xmlns:osb="http://www.openswatchbook.org/uri/2009/osb" xmlns:svg="http://www.w3.org/2000/svg" id="svg8" width="419.517" height="147.124" version="1.1" viewBox="0 0 110.997 38.927"><defs id="defs2"><marker style="overflow:visible" id="marker2641" orient="auto" refX="0" refY="0"><path transform="matrix(-0.8,0,0,-0.8,-10,0)" style="fill:#000;fill-opacity:1;fill-rule:evenodd;stroke:#000;stroke-width:1pt;stroke-opacity:1" id="path2639" d="M 0,0 5,-5 -12.5,0 5,5 Z"/></marker><marker style="overflow:visible" id="marker2397" orient="auto" refX="0" refY="0"><path transform="matrix(-0.8,0,0,-0.8,-10,0)" style="fill:#000;fill-opacity:1;fill-rule:evenodd;stroke:#000;stroke-width:1pt;stroke-opacity:1" id="path2395" d="M 0,0 5,-5 -12.5,0 5,5 Z"/></marker><marker style="overflow:visible" id="marker1711" orient="auto" refX="0" refY="0"><path transform="matrix(0.8,0,0,0.8,10,0)" style="fill:#000;fill-opacity:1;fill-rule:evenodd;stroke:#000;stroke-width:1pt;stroke-opacity:1" id="path1709" d="M 0,0 5,-5 -12.5,0 5,5 Z"/></marker><marker style="overflow:visible" id="marker1571" orient="auto" refX="0" refY="0"><path transform="matrix(-0.8,0,0,-0.8,-10,0)" style="fill:#000;fill-opacity:1;fill-rule:evenodd;stroke:#000;stroke-width:1pt;stroke-opacity:1" id="path1569" d="M 0,0 5,-5 -12.5,0 5,5 Z"/></marker><marker style="overflow:visible" id="marker1547" orient="auto" refX="0" refY="0"><path transform="matrix(-0.8,0,0,-0.8,-10,0)" style="fill:#000;fill-opacity:1;fill-rule:evenodd;stroke:#000;stroke-width:1pt;stroke-opacity:1" id="path1545" d="M 0,0 5,-5 -12.5,0 5,5 Z"/></marker><marker style="overflow:visible" id="marker1447" orient="auto" refX="0" refY="0"><path transform="matrix(-0.8,0,0,-0.8,-10,0)" style="fill:#000;fill-opacity:1;fill-rule:evenodd;stroke:#000;stroke-width:1pt;stroke-opacity:1" id="path1445" d="M 0,0 5,-5 -12.5,0 5,5 Z"/></marker><linearGradient id="linearGradient859" osb:paint="solid"><stop style="stop-color:#c5e0bf;stop-opacity:1" id="stop857" offset="0"/></linearGradient><marker style="overflow:visible" id="Arrow1Lend-1" orient="auto" refX="0" refY="0"><path transform="matrix(-0.8,0,0,-0.8,-10,0)" style="fill:#000;fill-opacity:1;fill-rule:evenodd;stroke:#000;stroke-width:1pt;stroke-opacity:1" id="path915-6" d="M 0,0 5,-5 -12.5,0 5,5 Z"/></marker></defs><metadata id="metadata5"/><g id="layer1" transform="translate(-52.299698,-44.934254)"><path style="mix-blend-mode:normal;fill:#c5e0bf;fill-opacity:1;stroke:#81a779;stroke-width:.0708821;stroke-linejoin:round;stroke-miterlimit:4;stroke-dasharray:none;stroke-opacity:1" id="rect32-3" width="41.138" height="11.007" x="118.124" y="68.819" d="m 119.71156,68.818703 37.96252,0 a 1.5875,1.5875 45 0 1 1.5875,1.5875 v 7.831705 a 1.5875,1.5875 135 0 1 -1.5875,1.5875 h -37.96252 a 1.5875,1.5875 45 0 1 -1.5875,-1.5875 v -7.831705 a 1.5875,1.5875 135 0 1 1.5875,-1.5875 z"/><text xml:space="preserve" style="font-style:normal;font-weight:400;font-size:4.5861px;line-height:1.25;font-family:sans-serif;fill:#000;fill-opacity:1;stroke:none;stroke-width:.264583" id="text867-4" x="128.409" y="75.874"><tspan id="tspan865-8" x="128.409" y="75.874" style="font-size:4.5861px;stroke-width:.264583">Coordinator</tspan></text><path style="display:inline;fill:none;fill-rule:evenodd;stroke:#000;stroke-width:.213446px;stroke-linecap:butt;stroke-linejoin:miter;stroke-opacity:1;marker-end:url(#Arrow1Lend-1)" id="path1228-5" d="M 74.156166,68.58322 C 82.596669,55.944272 118.03716,55.76649 126.13997,68.248054"/><path style="display:inline;fill:none;fill-rule:evenodd;stroke:#000;stroke-width:.215741px;stroke-linecap:butt;stroke-linejoin:miter;stroke-opacity:1;marker-end:url(#marker1571)" id="path1707" d="M 118.01183,74.171151 90.098297,74.338257"/><text xml:space="preserve" style="font-style:normal;font-weight:400;font-size:2.82222px;line-height:1.25;font-family:sans-serif;fill:#000;fill-opacity:1;stroke:none;stroke-width:.264583" id="text1787" x="88.548" y="51.078"><tspan id="tspan1785" x="88.548" y="51.078" style="font-size:2.82222px;stroke-width:.264583">start LRA with timeout</tspan></text><text xml:space="preserve" style="font-style:normal;font-weight:400;font-size:2.82222px;line-height:1.25;font-family:sans-serif;fill:#000;fill-opacity:1;stroke:none;stroke-width:.264583" id="text1787-5" x="94.27" y="57.613"><tspan id="tspan1785-4" x="94.27" y="57.613" style="font-size:2.82222px;stroke-width:.264583">join LRA</tspan></text><path style="mix-blend-mode:normal;fill:#c5e0bf;fill-opacity:1;stroke:#81a779;stroke-width:.0636601;stroke-linejoin:round;stroke-miterlimit:4;stroke-dasharray:none;stroke-opacity:1" id="rect32-37-3" width="33.16" height="11.014" x="56.332" y="68.553" d="M 57.919028,68.552734 H 87.90402 a 1.5875,1.5875 45 0 1 1.5875,1.5875 v 7.838928 a 1.5875,1.5875 135 0 1 -1.5875,1.5875 H 57.919028 a 1.5875,1.5875 45 0 1 -1.5875,-1.5875 v -7.838928 a 1.5875,1.5875 135 0 1 1.5875,-1.5875 z"/><text xml:space="preserve" style="font-style:normal;font-weight:400;font-size:4.5861px;line-height:1.25;font-family:sans-serif;fill:#000;fill-opacity:1;stroke:none;stroke-width:.264583" id="text867-5-5" x="61.063" y="75.3"><tspan id="tspan865-4-5" x="61.063" y="75.3" style="font-size:4.5861px;stroke-width:.264583">Participant</tspan></text><path style="display:inline;fill:none;fill-rule:evenodd;stroke:#000;stroke-width:.265;stroke-linecap:butt;stroke-linejoin:miter;stroke-opacity:1;marker-end:url(#marker2641);stroke-miterlimit:4;stroke-dasharray:none" id="path2299" d="m 67.823886,68.486744 c 8.384111,-22.497603 60.614284,-21.15156 68.376544,0.103247"/><text xml:space="preserve" style="font-style:normal;font-weight:400;font-size:2.82222px;line-height:1.25;font-family:sans-serif;white-space:pre;inline-size:21.9226;fill:#000;fill-opacity:1;stroke:none;stroke-width:.264583" id="text1787-5-7-9-2-2" x="23.459" y="83.664" transform="translate(73.202382,-11.179942)"><tspan x="23.459" y="83.664"><tspan style="font-size:2.82222px;stroke-width:.264583">compensate</tspan></tspan></text><g id="g3009" transform="matrix(0.26458333,0,0,0.26458333,121.70327,72.083349)"><path id="path2990" d="m 1,9 c 0,3.866 3.134,7 7,7 3.866,0 7,-3.134 7,-7 C 15,5.134 11.866,2 8,2 4.134,2 1,5.134 1,9 Z M 8,3 c 3.314,0 6,2.686 6,6 0,3.314 -2.686,6 -6,6 C 4.686,15 2,12.314 2,9 2,5.686 4.686,3 8,3 Z"/><rect id="rect2992" width="4" height="1" x="6" y="0"/><rect id="rect2994" width="1" height="2" x="13.5" y="1.5" transform="matrix(0.7071,-0.7071,0.7071,0.7071,2.3329,10.632)"/><path id="path2996" d="m 8,4 v 5 h 5 C 13,6.239 10.761,4 8,4 Z"/></g></g></svg>