<svg xmlns="http://www.w3.org/2000/svg" xmlns:osb="http://www.openswatchbook.org/uri/2009/osb" xmlns:svg="http://www.w3.org/2000/svg" id="svg8" width="674.687" height="427.04" version="1.1" viewBox="0 0 178.511 112.988"><defs id="defs2"><marker style="overflow:visible" id="marker2641" orient="auto" refX="0" refY="0"><path transform="matrix(-0.8,0,0,-0.8,-10,0)" style="fill:#000;fill-opacity:1;fill-rule:evenodd;stroke:#000;stroke-width:1pt;stroke-opacity:1" id="path2639" d="M 0,0 5,-5 -12.5,0 5,5 Z"/></marker><marker style="overflow:visible" id="marker2397" orient="auto" refX="0" refY="0"><path transform="matrix(-0.8,0,0,-0.8,-10,0)" style="fill:#000;fill-opacity:1;fill-rule:evenodd;stroke:#000;stroke-width:1pt;stroke-opacity:1" id="path2395" d="M 0,0 5,-5 -12.5,0 5,5 Z"/></marker><marker style="overflow:visible" id="marker1711" orient="auto" refX="0" refY="0"><path transform="matrix(0.8,0,0,0.8,10,0)" style="fill:#000;fill-opacity:1;fill-rule:evenodd;stroke:#000;stroke-width:1pt;stroke-opacity:1" id="path1709" d="M 0,0 5,-5 -12.5,0 5,5 Z"/></marker><marker style="overflow:visible" id="Arrow1Lstart" orient="auto" refX="0" refY="0"><path transform="matrix(0.8,0,0,0.8,10,0)" style="fill:#000;fill-opacity:1;fill-rule:evenodd;stroke:#000;stroke-width:1pt;stroke-opacity:1" id="path912" d="M 0,0 5,-5 -12.5,0 5,5 Z"/></marker><marker style="overflow:visible" id="marker1571" orient="auto" refX="0" refY="0"><path transform="matrix(-0.8,0,0,-0.8,-10,0)" style="fill:#000;fill-opacity:1;fill-rule:evenodd;stroke:#000;stroke-width:1pt;stroke-opacity:1" id="path1569" d="M 0,0 5,-5 -12.5,0 5,5 Z"/></marker><marker style="overflow:visible" id="marker1547" orient="auto" refX="0" refY="0"><path transform="matrix(-0.8,0,0,-0.8,-10,0)" style="fill:#000;fill-opacity:1;fill-rule:evenodd;stroke:#000;stroke-width:1pt;stroke-opacity:1" id="path1545" d="M 0,0 5,-5 -12.5,0 5,5 Z"/></marker><marker style="overflow:visible" id="marker1447" orient="auto" refX="0" refY="0"><path transform="matrix(-0.8,0,0,-0.8,-10,0)" style="fill:#000;fill-opacity:1;fill-rule:evenodd;stroke:#000;stroke-width:1pt;stroke-opacity:1" id="path1445" d="M 0,0 5,-5 -12.5,0 5,5 Z"/></marker><linearGradient id="linearGradient859" osb:paint="solid"><stop style="stop-color:#c5e0bf;stop-opacity:1" id="stop857" offset="0"/></linearGradient><marker style="overflow:visible" id="Arrow1Lend-1" orient="auto" refX="0" refY="0"><path transform="matrix(-0.8,0,0,-0.8,-10,0)" style="fill:#000;fill-opacity:1;fill-rule:evenodd;stroke:#000;stroke-width:1pt;stroke-opacity:1" id="path915-6" d="M 0,0 5,-5 -12.5,0 5,5 Z"/></marker><marker style="overflow:visible" id="Arrow1Lend-1-3" orient="auto" refX="0" refY="0"><path transform="matrix(-0.8,0,0,-0.8,-10,0)" style="fill:#000;fill-opacity:1;fill-rule:evenodd;stroke:#000;stroke-width:1pt;stroke-opacity:1" id="path915-6-5" d="M 0,0 5,-5 -12.5,0 5,5 Z"/></marker><marker style="overflow:visible" id="marker1571-2" orient="auto" refX="0" refY="0"><path transform="matrix(-0.8,0,0,-0.8,-10,0)" style="fill:#000;fill-opacity:1;fill-rule:evenodd;stroke:#000;stroke-width:1pt;stroke-opacity:1" id="path1569-6" d="M 0,0 5,-5 -12.5,0 5,5 Z"/></marker><marker style="overflow:visible" id="marker2641-7" orient="auto" refX="0" refY="0"><path transform="matrix(-0.8,0,0,-0.8,-10,0)" style="fill:#000;fill-opacity:1;fill-rule:evenodd;stroke:#000;stroke-width:1pt;stroke-opacity:1" id="path2639-9" d="M 0,0 5,-5 -12.5,0 5,5 Z"/></marker></defs><metadata id="metadata5"/><g id="layer1" transform="translate(23.198654,-19.675991)"><path style="mix-blend-mode:normal;fill:#c5e0bf;fill-opacity:1;stroke:#81a779;stroke-width:.0675214;stroke-linejoin:round;stroke-miterlimit:4;stroke-dasharray:none;stroke-opacity:1" id="rect32" width="37.305" height="11.014" x="52.766" y="68.79" d="m 54.353197,68.790474 h 34.129764 a 1.5875,1.5875 45 0 1 1.5875,1.5875 l 0,7.838927 a 1.5875,1.5875 135 0 1 -1.5875,1.5875 H 54.353197 a 1.5875,1.5875 45 0 1 -1.5875,-1.5875 v -7.838927 a 1.5875,1.5875 135 0 1 1.5875,-1.5875 z"/><text xml:space="preserve" style="font-style:normal;font-weight:400;font-size:4.58611px;line-height:1.25;font-family:sans-serif;fill:#000;fill-opacity:1;stroke:none;stroke-width:.264583" id="text867" x="56.033" y="75.686"><tspan id="tspan865" x="56.033" y="75.686" style="font-size:4.58611px;stroke-width:.264583">Load balancer</tspan></text><path style="mix-blend-mode:normal;fill:#c5e0bf;fill-opacity:1;stroke:#81a779;stroke-width:.0636601;stroke-linejoin:round;stroke-miterlimit:4;stroke-dasharray:none;stroke-opacity:1" id="rect32-3" width="33.16" height="11.014" x="118.12" y="68.815" d="m 119.70795,68.815094 29.985,0 a 1.5875,1.5875 45 0 1 1.5875,1.5875 v 7.838927 a 1.5875,1.5875 135 0 1 -1.5875,1.5875 h -29.985 a 1.5875,1.5875 45 0 1 -1.5875,-1.5875 v -7.838927 a 1.5875,1.5875 135 0 1 1.5875,-1.5875 z"/><text xml:space="preserve" style="font-style:normal;font-weight:400;font-size:4.5861px;line-height:1.25;font-family:sans-serif;fill:#000;fill-opacity:1;stroke:none;stroke-width:.264583" id="text867-4" x="121.328" y="75.894"><tspan id="tspan865-8" x="121.328" y="75.894" style="font-size:4.5861px;stroke-width:.264583">Coordinator</tspan></text><path style="mix-blend-mode:normal;fill:#edbb75;fill-opacity:1;stroke:#81a779;stroke-width:.144336;stroke-linejoin:round;stroke-miterlimit:4;stroke-dasharray:none;stroke-opacity:1" id="rect32-37-36" width="45.581" height="41.19" x="-19.126" y="43.421" d="M -17.538986,43.421391 H 24.86689 a 1.5875,1.5875 45 0 1 1.5875,1.5875 v 38.014647 a 1.5875,1.5875 135 0 1 -1.5875,1.5875 h -42.405876 a 1.5875,1.5875 45 0 1 -1.5875,-1.5875 V 45.008891 a 1.5875,1.5875 135 0 1 1.5875,-1.5875 z"/><path style="display:inline;fill:none;fill-rule:evenodd;stroke:#000;stroke-width:.213446px;stroke-linecap:butt;stroke-linejoin:miter;stroke-opacity:1;marker-end:url(#Arrow1Lend-1)" id="path1228-5" d="M 19.656378,61.399977 C 90.02047,12.392365 125.93087,57.55414 126.13997,68.248054"/><path style="display:inline;fill:none;fill-rule:evenodd;stroke:#000;stroke-width:.21774px;stroke-linecap:butt;stroke-linejoin:round;stroke-opacity:1;marker-start:url(#Arrow1Lstart)" id="path1519" d="M 122.21317,68.051473 C 111.87244,59.84803 90.607401,27.274687 19.567837,63.396171"/><path style="display:inline;fill:none;fill-rule:evenodd;stroke:#000;stroke-width:.215741px;stroke-linecap:butt;stroke-linejoin:miter;stroke-opacity:1;marker-end:url(#marker1571)" id="path1707" d="M 118.27329,72.438524 90.359759,72.60563"/><text xml:space="preserve" style="font-style:normal;font-weight:400;font-size:2.82222222px;line-height:1.25;font-family:sans-serif;fill:#000;fill-opacity:1;stroke:none;stroke-width:.264583" id="text1787" x="72.087" y="25.219"><tspan id="tspan1785" x="72.087" y="25.219" style="font-size:2.82222222px;stroke-width:.264583">start LRA</tspan></text><text xml:space="preserve" style="font-style:normal;font-weight:400;font-size:2.82222222px;line-height:1.25;font-family:sans-serif;fill:#000;fill-opacity:1;stroke:none;stroke-width:.264583" id="text1787-5" x="74.031" y="36.247"><tspan id="tspan1785-4" x="74.031" y="36.247" style="font-size:2.82222222px;stroke-width:.264583">join A</tspan></text><text xml:space="preserve" style="font-style:normal;font-weight:400;font-size:2.82222222px;line-height:1.25;font-family:sans-serif;fill:#000;fill-opacity:1;stroke:none;stroke-width:.264583" id="text1787-5-7" x="74.546" y="45.216"><tspan id="tspan1785-4-6" x="74.546" y="45.216" style="font-size:2.82222222px;stroke-width:.264583">close</tspan></text><text xml:space="preserve" style="font-style:normal;font-weight:400;font-size:2.82222px;line-height:1.25;font-family:sans-serif;white-space:pre;inline-size:19.2264;fill:#000;fill-opacity:1;stroke:none;stroke-width:.264583" id="text1787-5-7-9" x="99.047" y="71.465" transform="translate(-1.366461)"><tspan x="99.047" y="71.465"><tspan style="font-size:2.82222px;stroke-width:.264583">complete </tspan><tspan style="font-size:2.82222px;stroke-width:.264583">A</tspan></tspan></text><path style="mix-blend-mode:normal;fill:#c5e0bf;fill-opacity:1;stroke:#81a779;stroke-width:.0636601;stroke-linejoin:round;stroke-miterlimit:4;stroke-dasharray:none;stroke-opacity:1" id="rect32-37" width="33.16" height="11.014" x="-13.627" y="70.399" d="M -12.039512,70.399307 H 17.94548 a 1.5875,1.5875 45 0 1 1.5875,1.5875 v 7.838928 a 1.5875,1.5875 135 0 1 -1.5875,1.5875 h -29.984992 a 1.5875,1.5875 45 0 1 -1.5875,-1.5875 l 0,-7.838928 a 1.5875,1.5875 135 0 1 1.5875,-1.5875 z"/><text xml:space="preserve" style="font-style:normal;font-weight:400;font-size:4.5861px;line-height:1.25;font-family:sans-serif;fill:#000;fill-opacity:1;stroke:none;stroke-width:.264583" id="text867-5" x="-11.51" y="77.664"><tspan id="tspan865-4" x="-11.51" y="77.664" style="font-size:4.5861px;stroke-width:.264583">Participant B</tspan></text><path style="mix-blend-mode:normal;fill:#c5e0bf;fill-opacity:1;stroke:#81a779;stroke-width:.0636601;stroke-linejoin:round;stroke-miterlimit:4;stroke-dasharray:none;stroke-opacity:1" id="rect32-37-3" width="33.16" height="11.014" x="-13.409" y="55.296" d="m -11.821698,55.296429 h 29.984992 a 1.5875,1.5875 45 0 1 1.5875,1.5875 v 7.838927 a 1.5875,1.5875 135 0 1 -1.5875,1.5875 h -29.984992 a 1.5875,1.5875 45 0 1 -1.5875,-1.5875 l 0,-7.838927 a 1.5875,1.5875 135 0 1 1.5875,-1.5875 z"/><text xml:space="preserve" style="font-style:normal;font-weight:400;font-size:4.5861px;line-height:1.25;font-family:sans-serif;fill:#000;fill-opacity:1;stroke:none;stroke-width:.264583" id="text867-5-5" x="-11.16" y="62.443"><tspan id="tspan865-4-5" x="-11.16" y="62.443" style="font-size:4.5861px;stroke-width:.264583">Participant A</tspan></text><path style="display:inline;fill:none;fill-rule:evenodd;stroke:#000;stroke-width:.264583px;stroke-linecap:butt;stroke-linejoin:miter;stroke-opacity:1;marker-end:url(#marker2397)" id="path2299" d="M 19.632008,57.545555 C 45.253302,16.396123 127.22747,14.973413 132.18508,68.533253"/><path style="mix-blend-mode:normal;fill:#edbb75;fill-opacity:1;stroke:#81a779;stroke-width:.144336;stroke-linejoin:round;stroke-miterlimit:4;stroke-dasharray:none;stroke-opacity:1" id="rect32-37-36-1" width="45.581" height="41.19" x="-19.295" y="88.578" d="m -17.707237,88.577576 h 42.405876 a 1.5875,1.5875 45 0 1 1.5875,1.5875 v 38.014644 a 1.5875,1.5875 135 0 1 -1.5875,1.5875 h -42.405876 a 1.5875,1.5875 45 0 1 -1.5875,-1.5875 V 90.165076 a 1.5875,1.5875 135 0 1 1.5875,-1.5875 z"/><path style="mix-blend-mode:normal;fill:#c5e0bf;fill-opacity:1;stroke:#81a779;stroke-width:.0636601;stroke-linejoin:round;stroke-miterlimit:4;stroke-dasharray:none;stroke-opacity:1" id="rect32-37-2" width="33.16" height="11.014" x="-13.795" y="115.555" d="m -12.207764,115.5555 h 29.984992 a 1.5875,1.5875 45 0 1 1.5875,1.5875 l 0,7.83892 a 1.5875,1.5875 135 0 1 -1.5875,1.5875 h -29.984992 a 1.5875,1.5875 45 0 1 -1.5875,-1.5875 V 117.143 a 1.5875,1.5875 135 0 1 1.5875,-1.5875 z"/><text xml:space="preserve" style="font-style:normal;font-weight:400;font-size:4.5861px;line-height:1.25;font-family:sans-serif;fill:#000;fill-opacity:1;stroke:none;stroke-width:.264583" id="text867-5-7" x="-11.678" y="122.82"><tspan id="tspan865-4-0" x="-11.678" y="122.82" style="font-size:4.5861px;stroke-width:.264583">Participant B</tspan></text><path style="display:inline;fill:none;fill-rule:evenodd;stroke:#000;stroke-width:.264583px;stroke-linecap:butt;stroke-linejoin:miter;stroke-opacity:1;marker-end:url(#marker2641)" id="path2631" d="M 52.616095,71.401706 C 42.36101,71.516119 49.350678,105.75357 20.102868,104.69757"/><text xml:space="preserve" style="font-style:normal;font-weight:400;font-size:4.5861px;line-height:1.25;font-family:sans-serif;fill:#000;fill-opacity:1;stroke:none;stroke-width:.264583" id="text867-5-5-7" x="-8.155" y="49.527"><tspan id="tspan865-4-5-5" x="-8.155" y="49.527" style="font-size:4.5861px;stroke-width:.264583">Instance 1</tspan></text><path style="display:inline;fill:none;fill-rule:evenodd;stroke:#000;stroke-width:.213446px;stroke-linecap:butt;stroke-linejoin:miter;stroke-opacity:1;marker-end:url(#Arrow1Lend-1-3)" id="path1228-5-6" d="M 19.437346,73.085142 C 58.291709,52.576646 92.833691,55.299846 118.12045,68.815094"/><text xml:space="preserve" style="font-style:normal;font-weight:400;font-size:2.82222222px;line-height:1.25;font-family:sans-serif;fill:#000;fill-opacity:1;stroke:none;stroke-width:.264583" id="text1787-5-2" x="67.074" y="56.013"><tspan id="tspan1785-4-9" x="67.074" y="56.013" style="font-size:2.82222222px;stroke-width:.264583">join B</tspan></text><path style="mix-blend-mode:normal;fill:#c5e0bf;fill-opacity:1;stroke:#81a779;stroke-width:.0636601;stroke-linejoin:round;stroke-miterlimit:4;stroke-dasharray:none;stroke-opacity:1" id="rect32-37-3-9" width="33.16" height="11.014" x="-13.577" y="100.453" d="m -11.989949,100.45262 h 29.984992 a 1.5875,1.5875 45 0 1 1.5875,1.5875 v 7.83893 a 1.5875,1.5875 135 0 1 -1.5875,1.5875 h -29.984992 a 1.5875,1.5875 45 0 1 -1.5875,-1.5875 l 0,-7.83893 a 1.5875,1.5875 135 0 1 1.5875,-1.5875 z"/><text xml:space="preserve" style="font-style:normal;font-weight:400;font-size:4.5861px;line-height:1.25;font-family:sans-serif;fill:#000;fill-opacity:1;stroke:none;stroke-width:.264583" id="text867-5-5-3" x="-11.328" y="107.599"><tspan id="tspan865-4-5-6" x="-11.328" y="107.599" style="font-size:4.5861px;stroke-width:.264583">Participant A</tspan></text><text xml:space="preserve" style="font-style:normal;font-weight:400;font-size:4.5861px;line-height:1.25;font-family:sans-serif;fill:#000;fill-opacity:1;stroke:none;stroke-width:.264583" id="text867-5-5-7-0" x="-8.969" y="94.626"><tspan id="tspan865-4-5-5-6" x="-8.969" y="94.626" style="font-size:4.5861px;stroke-width:.264583">Instance 2</tspan></text><path style="display:inline;fill:none;fill-rule:evenodd;stroke:#000;stroke-width:.215741px;stroke-linecap:butt;stroke-linejoin:miter;stroke-opacity:1;marker-end:url(#marker1571-2)" id="path1707-1" d="M 118.27373,76.194749 90.360198,76.361855"/><text xml:space="preserve" style="font-style:normal;font-weight:400;font-size:2.82222px;line-height:1.25;font-family:sans-serif;white-space:pre;inline-size:19.2591;fill:#000;fill-opacity:1;stroke:none;stroke-width:.264583" id="text1787-5-7-9-8" x="99.047" y="71.465" transform="translate(-1.3725634,3.6453085)"><tspan x="99.047" y="71.465"><tspan style="font-size:2.82222px;stroke-width:.264583">complete B</tspan></tspan></text><path style="display:inline;fill:none;fill-rule:evenodd;stroke:#000;stroke-width:.264583px;stroke-linecap:butt;stroke-linejoin:miter;stroke-opacity:1;marker-end:url(#marker2641-7)" id="path2631-2" d="M 52.625825,75.722734 C 44.043267,75.933635 59.31494,120.3195 20.170413,120.35281"/><text xml:space="preserve" style="font-style:normal;font-weight:400;font-size:2.82222px;line-height:1.25;font-family:sans-serif;white-space:pre;inline-size:19.0931;fill:#000;fill-opacity:1;stroke:none;stroke-width:.264583" id="text1787-5-7-9-0" x="99.047" y="71.465" transform="translate(-70.416109,34.632351)"><tspan x="99.047" y="71.465"><tspan style="font-size:2.82222px;stroke-width:.264583">complete </tspan><tspan style="font-size:2.82222px;stroke-width:.264583">A</tspan></tspan></text><text xml:space="preserve" style="font-style:normal;font-weight:400;font-size:2.82222px;line-height:1.25;font-family:sans-serif;white-space:pre;inline-size:20.3238;fill:#000;fill-opacity:1;stroke:none;stroke-width:.264583" id="text1787-5-7-9-8-2" x="99.047" y="71.465" transform="translate(-70.256059,50.804653)"><tspan x="99.047" y="71.465"><tspan style="font-size:2.82222px;stroke-width:.264583">complete B</tspan></tspan></text><text xml:space="preserve" style="font-style:normal;font-weight:400;font-size:2.11667px;line-height:1.25;font-family:sans-serif;white-space:pre;inline-size:16.5225;fill:#000;fill-opacity:1;stroke:none;stroke-width:.264583" id="text1787-5-7-9-0-3" x="99.047" y="71.465" transform="translate(-103.3361,-6.1005923)"><tspan x="99.047" y="71.465"><tspan>Requires NEW</tspan></tspan></text><text xml:space="preserve" style="font-style:normal;font-weight:400;font-size:2.11667px;line-height:1.25;font-family:sans-serif;white-space:pre;inline-size:16.5225;fill:#000;fill-opacity:1;stroke:none;stroke-width:.264583" id="text1787-5-7-9-0-3-7" x="99.047" y="71.465" transform="translate(-105.0675,39.230712)"><tspan x="99.047" y="71.465"><tspan>Requires NEW</tspan></tspan></text><text xml:space="preserve" style="font-style:normal;font-weight:400;font-size:2.11667px;line-height:1.25;font-family:sans-serif;white-space:pre;inline-size:16.5225;fill:#000;fill-opacity:1;stroke:none;stroke-width:.264583" id="text1787-5-7-9-0-3-5" x="99.047" y="71.465" transform="translate(-101.02448,9.0187202)"><tspan x="99.047" y="71.465"><tspan>Required</tspan></tspan></text><text xml:space="preserve" style="font-style:normal;font-weight:400;font-size:2.11667px;line-height:1.25;font-family:sans-serif;white-space:pre;inline-size:16.5225;fill:#000;fill-opacity:1;stroke:none;stroke-width:.264583" id="text1787-5-7-9-0-3-5-9" x="99.047" y="71.465" transform="translate(-102.66905,54.220753)"><tspan x="99.047" y="71.465"><tspan>Required</tspan></tspan></text></g></svg>